<svg xmlns="http://www.w3.org/2000/svg" xmlns:xlink="http://www.w3.org/1999/xlink" width="69.318" height="82.413" viewBox="0 0 69.318 82.413">
  <defs>
    <clipPath id="clip-path">
      <path id="Path_1" data-name="Path 1" d="M69.7-57.039a22.174,22.174,0,0,1-2.619,10.731,21.706,21.706,0,0,1-8.658,8.294q-6.039,3.456-15.933,5.347A136.688,136.688,0,0,1,18.043-30.7a9.341,9.341,0,0,0-.146,1.673q0,.8,0,1.455a24.741,24.741,0,0,0,1.091,7.421,16.743,16.743,0,0,0,3.383,6.111,15.963,15.963,0,0,0,5.893,4.147,21.8,21.8,0,0,0,8.549,1.528,36.284,36.284,0,0,0,11.022-1.928,47.37,47.37,0,0,0,11.459-5.493L57.039-4A47.288,47.288,0,0,1,47.508.073,40.967,40.967,0,0,1,35.14,1.819,33.61,33.61,0,0,1,21.281-.728a24.406,24.406,0,0,1-9.094-6.8A26.519,26.519,0,0,1,7.2-17.352,43.919,43.919,0,0,1,5.675-29.029,54.01,54.01,0,0,1,7.13-41.652,51.4,51.4,0,0,1,11.24-52.965a47.945,47.945,0,0,1,6.366-9.567,41.382,41.382,0,0,1,8.221-7.385A38.111,38.111,0,0,1,35.5-74.646,34.487,34.487,0,0,1,46.2-76.319a30.906,30.906,0,0,1,10.149,1.528A21.206,21.206,0,0,1,63.7-70.608,17.836,17.836,0,0,1,68.17-64.46,18.312,18.312,0,0,1,69.7-57.039Zm-12.15.582a8.411,8.411,0,0,0-3.383-7.13q-3.383-2.546-8.985-2.546A20.145,20.145,0,0,0,36.6-64.205a27.784,27.784,0,0,0-7.639,5.311,33.151,33.151,0,0,0-6.039,8.076,37.6,37.6,0,0,0-3.71,10.149,125.752,125.752,0,0,0,17.679-1.055,45.865,45.865,0,0,0,11.859-3.092A15.941,15.941,0,0,0,55.438-49.8,11.155,11.155,0,0,0,57.548-56.457Z" transform="translate(2 78)" fill="#707070"/>
    </clipPath>
    <linearGradient id="linear-gradient" x1="0.5" x2="0.5" y2="1" gradientUnits="objectBoundingBox">
      <stop offset="0" stop-color="#aeb0f6"/>
      <stop offset="0.222" stop-color="#a6edfc"/>
      <stop offset="0.464" stop-color="#c2ffe5"/>
      <stop offset="0.665" stop-color="#fcd3ed"/>
      <stop offset="0.87" stop-color="#ffd2e7"/>
      <stop offset="1" stop-color="#fff"/>
    </linearGradient>
  </defs>
  <g id="logo" transform="translate(-15.341 -8.793)">
    <g id="Mask_Group_1" data-name="Mask Group 1" transform="matrix(0.998, -0.07, 0.07, 0.998, 7.568, 12.118)" clip-path="url(#clip-path)">
      <g id="Path_2" data-name="Path 2" transform="translate(6)" fill="url(#linear-gradient)">
        <path d="M 0.5 97.24884796142578 L 0.5 0.5 L 87.22411346435547 0.5 L 53.36381912231445 75.13431549072266 L 0.5 97.24884796142578 Z" stroke="none"/>
        <path d="M 1 1 L 1 96.49769592285156 L 52.9896354675293 74.74885559082031 L 86.44821166992188 1 L 1 1 M 0 0 L 88 0 L 53.73798751831055 75.519775390625 L 0 98 L 0 0 Z" stroke="none" fill="#707070"/>
      </g>
    </g>
  </g>
</svg>
