<svg xmlns="http://www.w3.org/2000/svg" xmlns:xlink="http://www.w3.org/1999/xlink" width="120.664" height="71" viewBox="0 0 120.664 71">
  <defs>
    <clipPath id="clip-path">
      <path id="Path_4" data-name="Path 4" d="M39.278,11.828a13.6,13.6,0,0,1-1.607,6.584A13.317,13.317,0,0,1,32.36,23.5a31.9,31.9,0,0,1-9.775,3.281,83.859,83.859,0,0,1-15,1.205A5.731,5.731,0,0,0,7.5,29.012v.893a15.179,15.179,0,0,0,.67,4.553,10.272,10.272,0,0,0,2.076,3.749,9.793,9.793,0,0,0,3.615,2.544,13.374,13.374,0,0,0,5.245.937,22.26,22.26,0,0,0,6.762-1.183,29.062,29.062,0,0,0,7.03-3.37l-1.384,7.231a29.011,29.011,0,0,1-5.847,2.5,25.133,25.133,0,0,1-7.588,1.071,20.62,20.62,0,0,1-8.5-1.562A14.973,14.973,0,0,1,3.995,42.2,16.269,16.269,0,0,1,.937,36.176,26.944,26.944,0,0,1,0,29.012a33.135,33.135,0,0,1,.893-7.744,31.532,31.532,0,0,1,2.522-6.941A29.414,29.414,0,0,1,7.32,8.458a25.388,25.388,0,0,1,5.044-4.53,23.381,23.381,0,0,1,5.936-2.9A21.157,21.157,0,0,1,24.861,0a18.961,18.961,0,0,1,6.227.937A13.01,13.01,0,0,1,35.6,3.5a10.943,10.943,0,0,1,2.745,3.772A11.234,11.234,0,0,1,39.278,11.828Zm-7.454.357a5.16,5.16,0,0,0-2.076-4.374,8.942,8.942,0,0,0-5.512-1.562A12.359,12.359,0,0,0,18.97,7.432a17.046,17.046,0,0,0-4.687,3.258,20.338,20.338,0,0,0-3.7,4.954A23.07,23.07,0,0,0,8.3,21.871a77.151,77.151,0,0,0,10.846-.647,28.138,28.138,0,0,0,7.275-1.9,9.78,9.78,0,0,0,4.106-3.057A6.844,6.844,0,0,0,31.824,12.185Z" fill="#707070"/>
    </clipPath>
    <linearGradient id="linear-gradient" x1="0.5" x2="0.5" y2="1" gradientUnits="objectBoundingBox">
      <stop offset="0" stop-color="#aeb0f6"/>
      <stop offset="0.222" stop-color="#a6edfc"/>
      <stop offset="0.464" stop-color="#c2ffe5"/>
      <stop offset="0.665" stop-color="#fcd3ed"/>
      <stop offset="0.87" stop-color="#ffd2e7"/>
      <stop offset="1" stop-color="#fff"/>
    </linearGradient>
  </defs>
  <g id="logo-wide" transform="translate(-33.336 -57)">
    <g id="Mask_Group_2" data-name="Mask Group 2" transform="matrix(0.998, -0.07, 0.07, 0.998, 33.336, 64.79)" clip-path="url(#clip-path)">
      <g id="Path_3" data-name="Path 3" transform="translate(-5.289 -5.948)" fill="url(#linear-gradient)">
        <path d="M 0.4999966025352478 59.58929443359375 L 0.4999966025352478 0.5000057816505432 L 53.40913009643555 0.5000057816505432 L 45.15567779541016 56.67762756347656 L 0.4999966025352478 59.58929443359375 Z" stroke="none"/>
        <path d="M 0.9999961853027344 0.9999961853027344 L 0.9999961853027344 59.05562210083008 L 44.71974945068359 56.20498275756836 L 52.83030319213867 0.9999961853027344 L 0.9999961853027344 0.9999961853027344 M -3.814697265625e-06 -3.814697265625e-06 L 53.98795700073242 -3.814697265625e-06 L 45.59160614013672 57.1502571105957 L -3.814697265625e-06 60.12294387817383 L -3.814697265625e-06 -3.814697265625e-06 Z" stroke="none" fill="#707070"/>
      </g>
    </g>
    <text id="_ento" data-name="   ento" transform="translate(66 106)" fill="#474747" font-size="45" font-family="BKaj, B Kaj" letter-spacing="-0.063em"><tspan x="0" y="0" xml:space="preserve">   </tspan><tspan y="0" font-family="SegoeUI-Italic, Segoe UI" font-style="italic">ento</tspan></text>
    <path id="Path_5" data-name="Path 5" d="M8.965.82a1.472,1.472,0,0,1-1.012.6c-.579,0-.772-.225-1.062-.715S4.2-17.433,4.2-17.433a30.506,30.506,0,0,0,2.918-1.339,20.516,20.516,0,0,0,2.849-1.922L8.635-8.328q.066.417.121.945t.11,1.077q.055.549.077,1.077t.022.945h.088q.176-.4.406-.9t.516-1.044q.286-.538.582-1.088t.56-1.011L19.16-22.5h4.109Z" transform="translate(59 106)" fill="#474747"/>
  </g>
</svg>
